<svg id="a09be946-f624-467b-b4e8-e7207282fb09" data-name="Calque 1" xmlns="http://www.w3.org/2000/svg" xmlns:xlink="http://www.w3.org/1999/xlink" viewBox="0 0 256 384"><defs><clipPath id="a843e55e-6bd9-4638-a980-e6f9371cba6a"><rect width="256" height="384" style="fill:none"/></clipPath></defs><g style="clip-path:url(#a843e55e-6bd9-4638-a980-e6f9371cba6a)"><path d="M64,384a64,64,0,0,0,64-64V256H64a64,64,0,0,0,0,128Z" style="fill:#4cb37d"/><path d="M0,192a64,64,0,0,1,64-64h64V256H64A64,64,0,0,1,0,192Z" style="fill:#765ea5"/><path d="M0,64A64,64,0,0,1,64,0h64V128H64A64,64,0,0,1,0,64Z" style="fill:#e94f25"/><path d="M128,0h64a64,64,0,0,1,0,128H128Z" style="fill:#ee7164"/><path d="M256,192a64,64,0,1,1-64-64A64,64,0,0,1,256,192Z" style="fill:#44b7ea"/></g></svg>