<?xml version="1.0" encoding="utf-8"?>
<!-- Generator: Adobe Illustrator 25.2.1, SVG Export Plug-In . SVG Version: 6.00 Build 0)  -->
<svg version="1.1" xmlns="http://www.w3.org/2000/svg" xmlns:xlink="http://www.w3.org/1999/xlink" x="0px" y="0px"
	 viewBox="0 0 16.9 16.9" style="enable-background:new 0 0 16.9 16.9;" xml:space="preserve">
<style type="text/css">
	.st0{fill:#FF9A00;}
	.st1{fill:#331D05;}
</style>
<g id="Calque_2">
	<rect x="1.8" y="2.5" class="st0" width="13.2" height="11.6"/>
</g>
<g id="Capa_1">
	<g>
		<g>
			<path class="st1" d="M6.8,5.8L6.8,5.8C6.7,6.3,6.6,6.9,6.4,7.4L5.9,9.2h1.9L7.3,7.4C7.1,6.9,7,6.3,6.8,5.8z"/>
			<path class="st1" d="M15.8,0H1C0.5,0,0,0.5,0,1v14.8c0,0.6,0.5,1,1,1h14.8c0.6,0,1-0.5,1-1V1C16.9,0.5,16.4,0,15.8,0z M8.8,12.9
				l-0.7-2.2H5.6L5,12.9H3l2.6-8.6h2.5l2.7,8.6H8.8z M13.8,12.9h-1.9V6.7h1.9V12.9z M12.8,5.9c-0.6,0-1-0.4-1-1c0-0.6,0.4-1,1-1
				c0.6,0,1,0.4,1,1C13.9,5.5,13.4,5.9,12.8,5.9z"/>
		</g>
	</g>
</g>
</svg>
