<?xml version="1.0" encoding="utf-8"?>
<!-- Generator: Adobe Illustrator 25.2.1, SVG Export Plug-In . SVG Version: 6.00 Build 0)  -->
<svg version="1.1" id="Capa_1" xmlns="http://www.w3.org/2000/svg" xmlns:xlink="http://www.w3.org/1999/xlink" x="0px" y="0px"
	 viewBox="0 0 15.5 15.5" style="enable-background:new 0 0 15.5 15.5;" xml:space="preserve">
<style type="text/css">
	.st0{fill:#FF3366;}
	.st1{fill:#49021F;}
</style>
<rect x="2" y="2.3" class="st0" width="11" height="10.2"/>
<g>
	<g>
		<g>
			<path class="st1" d="M9.1,7.4C8.4,7.4,8,8,8,8.9c0,0.9,0.4,1.4,1.1,1.4c0.5,0,0.8-0.3,0.9-0.8c0-0.1,0-0.2,0-0.4V8.5
				c0-0.1,0-0.2,0-0.3C10,7.7,9.6,7.4,9.1,7.4z"/>
			<path class="st1" d="M14.5,0H1C0.4,0,0,0.4,0,1v13.5c0,0.5,0.4,1,1,1h13.5c0.5,0,1-0.4,1-1V1C15.5,0.4,15.1,0,14.5,0z M5.4,11.4
				H3.7V4.3h1.6V11.4z M10.3,11.4l-0.1-0.8h0c-0.3,0.6-1,0.9-1.6,0.9c-1.2,0-2.2-1.1-2.2-2.7c0-1.7,1.1-2.8,2.3-2.8
				c0.6,0,1.1,0.2,1.4,0.6h0V3.9h1.6v6c0,0.6,0,1.2,0,1.5L10.3,11.4L10.3,11.4z"/>
		</g>
	</g>
</g>
</svg>
