<?xml version="1.0" encoding="utf-8"?>
<!-- Generator: Adobe Illustrator 25.2.1, SVG Export Plug-In . SVG Version: 6.00 Build 0)  -->
<svg version="1.1" id="Calque_1" xmlns="http://www.w3.org/2000/svg" xmlns:xlink="http://www.w3.org/1999/xlink" x="0px" y="0px"
	 viewBox="0 0 640 283" style="enable-background:new 0 0 640 283;" xml:space="preserve">
<style type="text/css">
	.st0{fill:#1B335A;}
</style>
<path class="st0" d="M612.7,105c0-20.5,3.2-32.6,3.2-54.6c0-34.2-12.6-45.2-40.5-45.2h-20.5v24.2h6.3c14.2,0,17.3,4.7,17.3,22.1
	c0,16.3-1.6,32.6-1.6,51.5c0,24.2,7.9,33.6,23.6,37.3v1.6c-15.8,3.7-23.6,13.1-23.6,37.3c0,18.9,1.6,34.2,1.6,51.5
	c0,17.9-3.7,22.6-17.3,22.6v0.5h-6.3V279h20.5c27.8,0,40.5-11,40.5-45.2c0-22.6-3.2-34.2-3.2-54.6c0-11,6.8-22.6,27.3-23.6v-27.3
	C619.5,127.6,612.7,116,612.7,105L612.7,105z M507.1,137c-15.8-6.3-30.5-10-30.5-20.5c0-7.9,6.3-12.6,17.9-12.6s22.1,4.7,33.6,13.1
	l21-27.8c-13.1-10-31-20.5-55.2-20.5c-35.7,0-59.9,20.5-59.9,49.4c0,25.7,22.6,38.9,41.5,46.2c16.3,6.3,32.1,11.6,32.1,22.1
	c0,7.9-6.3,13.1-20.5,13.1c-13.1,0-26.3-5.3-40.5-16.3l-21,30.5c15.8,13.1,39.9,22.1,59.9,22.1c42,0,64.6-22.1,64.6-51
	S527.5,143.9,507.1,137L507.1,137z M148.2,196.4c-3.7,0-8.4-3.2-8.4-13.1V5.1H65.1c-28.4,0-41,11-41,45.2c0,22.6,3.2,35.2,3.2,54.6
	c0,11-6.8,22.6-27.3,23.6v27.3c20.5,0.5,27.3,12.1,27.3,23.1c0,19.4-3.2,31-3.2,53.6c0,34.2,12.6,45.2,40.5,45.2h20.5v-24.2h-6.3
	c-13.1,0-17.3-5.3-17.3-22.6s1.6-32.1,1.6-51.5c0-24.2-7.9-33.6-23.6-37.3v-1.6c15.8-3.7,23.6-13.1,23.6-37.3
	c0-18.9-1.6-34.2-1.6-51.5s3.7-22.1,17.3-22.1h14.1v150.8c0,32.1,11,53.1,43.1,53.1c10,0,17.9-1.6,23.6-3.7l-5.3-34.2
	C151.3,196.4,149.8,196.4,148.2,196.4L148.2,196.4z M379.9,137c-16.3-6.3-31-10-31-20.5c0-7.9,6.3-12.6,17.9-12.6
	s22.1,4.7,33.6,13.1l21-27.8c-13.1-10-31-20.5-55.2-20.5c-35.7,0-59.9,20.5-59.9,49.4c0,25.7,22.6,38.9,41.5,46.2
	c16.3,6.3,32.1,11.6,32.1,22.1c0,7.9-6.3,13.1-20.5,13.1c-13.1,0-26.3-5.3-40.5-16.3l-20.5,30.5c15.8,13.1,39.9,22.1,59.9,22.1
	c42,0,64.6-22.1,64.6-51C423,156,400.4,143.9,379.9,137L379.9,137z M224.8,68.2c-38.4,0-75.1,32.1-74.1,82.5
	c0,52,34.2,82.5,79.3,82.5c18.9,0,39.9-6.8,56.2-17.9l-15.8-27.8c-11.6,6.8-22.6,10-34.2,10c-21,0-37.3-10-41.5-34.2H290
	c0.5-3.7,1.6-11,1.6-19.4C292.2,101.4,269,68.3,224.8,68.2L224.8,68.2z M194.8,134.4c3.2-21,15.8-31,30.5-31
	c18.9,0,26.3,13.1,26.3,31H194.8z"/>
</svg>
