<svg id="b5ed5e6b-f1e7-4a47-aae4-98b090fccfc8" data-name="Calque 1" xmlns="http://www.w3.org/2000/svg" viewBox="0 0 512 134.03"><path d="M39.69,13.81C34.49,7.64,30,1.37,29.1.07L29,0l-.09,0-.09,0-.08.05c-.92,1.3-5.39,7.57-10.59,13.74-44.64,56.93,7,95.34,7,95.34l.43.29C26,115.37,27,123.9,27,123.9h3.85s1-8.48,1.35-14.46l.43-.34C32.66,109.15,84.32,70.74,39.69,13.81ZM28.9,108.29a21.23,21.23,0,0,1-2.93-3v-.1l2.79-62a.15.15,0,0,1,.29,0l2.79,62v.1A21.71,21.71,0,0,1,28.9,108.29Z" style="fill:#60b456"/><path d="M125.59,95.64,104.06,43.05l0-.14H87.26v3.53H90A3.06,3.06,0,0,1,93,49.54l-.49,52.92a3.08,3.08,0,0,1-3,3.05l-2.75,0v3.49H103.1v-3.49l-1.69,0a3.09,3.09,0,0,1-3-3.05V52.59l23.46,56.46a2.13,2.13,0,0,0,4,0l22.93-55.2.34,48.61a3.1,3.1,0,0,1-3,3.1h-1.74v3.49h19.11v-3.49h-2.6a3.12,3.12,0,0,1-3-3l-.15-52.92a3.1,3.1,0,0,1,.87-2.16,3.14,3.14,0,0,1,2.12-.94l2.8-.05V42.91H147.12L125.59,95.64Zm150.11,9a2.93,2.93,0,0,1-.82-2.13v-26c0-5-1.45-8.83-4.36-11.59s-6.82-4.17-11.76-4.17a18.67,18.67,0,0,0-16.21,8.34.37.37,0,0,1-.34.15A.23.23,0,0,1,242,69l-1.79-6.93h-3l-7.7,4.41v2.42h2a3.24,3.24,0,0,1,2.22.73,2.84,2.84,0,0,1,.83,2.23v30.61a2.84,2.84,0,0,1-3,3h-1.93V109h17.71v-3.54h-1.93a2.84,2.84,0,0,1-3-3V82.18a19.56,19.56,0,0,1,1.65-7.66A15.33,15.33,0,0,1,249,68.36,12.8,12.8,0,0,1,256.83,66c3.39,0,5.95,1.07,7.55,3.2a13.45,13.45,0,0,1,2.42,8.2v25a2.84,2.84,0,0,1-3,3h-1.93v3.54h17.71v-3.54h-1.93A2.48,2.48,0,0,1,275.7,104.64ZM437.54,46.87a34.23,34.23,0,0,0-16.28-4h-23v3.52h2.26a3.29,3.29,0,0,1,2.4,1.11A3.43,3.43,0,0,1,404,50v52a3.81,3.81,0,0,1-3.5,3.52h-2.26V109h23a34.23,34.23,0,0,0,16.28-4A29.75,29.75,0,0,0,449.3,93.6,34.46,34.46,0,0,0,453.66,76a34.59,34.59,0,0,0-4.36-17.62A30,30,0,0,0,437.54,46.87Zm6.86,29c0,6.18-1.1,11.4-3.26,15.6a22,22,0,0,1-8.6,9.37,23.37,23.37,0,0,1-11.71,3h-4.66a3.29,3.29,0,0,1-2.4-1.11,3.43,3.43,0,0,1-1.1-2.42v-49a3.35,3.35,0,0,1,1.1-2.42,3.4,3.4,0,0,1,2.4-1.11h4.66a23.37,23.37,0,0,1,11.71,3,22,22,0,0,1,8.6,9.37A34.38,34.38,0,0,1,444.4,75.88Zm63.73,3.53c-2.13-2.46-6.25-4.54-11.08-5.65,6.68-3.33,10.11-8,10.11-14.05A15,15,0,0,0,504.55,51,17.36,17.36,0,0,0,497.19,45a26.82,26.82,0,0,0-11-2.12H460.13v3.52h2.08a3.33,3.33,0,0,1,2.42,1.11A3.44,3.44,0,0,1,465.74,50v52a3.83,3.83,0,0,1-3.53,3.52h-2.28V109h28.31a32,32,0,0,0,11.95-2.18,19.37,19.37,0,0,0,8.62-6.37A16.46,16.46,0,0,0,512,90.22,16.18,16.18,0,0,0,508.13,79.41Zm-32.47,23.41a3.36,3.36,0,0,1-1.11-2.41V77.09H488q7.11,0,10.89,3.62a12.47,12.47,0,0,1,3.77,9.42A14.67,14.67,0,0,1,501,96.79a12.84,12.84,0,0,1-5,5.12,15.51,15.51,0,0,1-8,2h-9.92a3.42,3.42,0,0,1-2.42-1.07Zm-1.07-30.7V51.4A3.28,3.28,0,0,1,475.71,49a3.42,3.42,0,0,1,2.42-1.11h6.38c4.6,0,8,1.16,10.12,3.38A12.24,12.24,0,0,1,497.82,60a12.78,12.78,0,0,1-3,8.83c-2,2.18-5,3.29-8.95,3.29ZM208.27,63.83A25.36,25.36,0,0,0,196,60.74a24.69,24.69,0,0,0-12,2.93l-.29.16a22.71,22.71,0,0,0-8.79,8.66,25.14,25.14,0,0,0-3.26,12.84,25.17,25.17,0,0,0,3.26,12.85,22.71,22.71,0,0,0,8.79,8.66,25.36,25.36,0,0,0,12.3,3.08A24.78,24.78,0,0,0,208,107l.29-.16a22.64,22.64,0,0,0,8.79-8.66,25.17,25.17,0,0,0,3.26-12.85,25.14,25.14,0,0,0-3.26-12.84A22.64,22.64,0,0,0,208.27,63.83Zm3.55,21.5c0,5.92-1.44,10.73-4.32,14.2a15.3,15.3,0,0,1-22.9.18l-.15-.18c-2.88-3.47-4.32-8.28-4.32-14.2s1.39-10.55,4.17-14l.15-.19a15.28,15.28,0,0,1,23.05,0C210.38,74.6,211.82,79.42,211.82,85.33Zm166.63-21.5a25.3,25.3,0,0,0-12.29-3.09,24.65,24.65,0,0,0-12,2.93l-.29.16a22.64,22.64,0,0,0-8.79,8.66,25.14,25.14,0,0,0-3.27,12.84,25.18,25.18,0,0,0,3.27,12.85,22.64,22.64,0,0,0,8.79,8.66,25.3,25.3,0,0,0,12.29,3.08,24.75,24.75,0,0,0,12-2.92l.29-.16a22.64,22.64,0,0,0,8.79-8.66,25.18,25.18,0,0,0,3.27-12.85,25.14,25.14,0,0,0-3.27-12.84A23,23,0,0,0,378.45,63.83ZM382,85.33c0,5.92-1.44,10.73-4.32,14.2a15.3,15.3,0,0,1-22.9.18l-.15-.18c-2.89-3.47-4.33-8.28-4.33-14.2s1.39-10.55,4.17-14l.16-.19a15.28,15.28,0,0,1,23.05,0C380.52,74.6,382,79.42,382,85.33ZM309.82,60.75a22.82,22.82,0,0,0-10.59,2.46,18.76,18.76,0,0,0-7.5,6.72,17,17,0,0,0-2.7,9.28,16.29,16.29,0,0,0,2.08,8.22,18.5,18.5,0,0,0,5.51,6l-6.92,9.38a3.81,3.81,0,0,0-.34,4,3.76,3.76,0,0,0,3.39,2.08h2a14.74,14.74,0,0,0-4.41,4.46l-.13.23A12.39,12.39,0,0,0,288.3,120a11.91,11.91,0,0,0,5.27,10l.19.14c3.58,2.56,8.61,3.87,14.95,3.87a36.14,36.14,0,0,0,12.43-2.13,21.89,21.89,0,0,0,9.13-6l.2-.23a14.39,14.39,0,0,0,3.58-9.76c0-4-1.45-6.77-4.84-9.48-2.9-2.27-7.44-3.48-13.1-3.48H296.76a.11.11,0,0,1-.07,0l0,0h0s0-.1,0-.13l5-6.77a17.54,17.54,0,0,0,3.72,1.26,19.53,19.53,0,0,0,3.92.34,23.55,23.55,0,0,0,10.93-2.47,19.28,19.28,0,0,0,7.59-6.72,16.65,16.65,0,0,0,2.76-9.28c0-3.57-1.74-10.1-6.48-13.44,0,0,0,0,0,0h0l10.4,1.16V62.05H318A27.07,27.07,0,0,0,309.82,60.75ZM315.62,91a12.54,12.54,0,0,1-5.8,1.49,12.09,12.09,0,0,1-8.51-3.43c-2.42-2.27-3.63-5.61-3.63-9.86s1.21-7.59,3.63-9.86a12.09,12.09,0,0,1,8.51-3.43,11.74,11.74,0,0,1,5.57,1.37l.23.13a11.72,11.72,0,0,1,4.55,4.44A14.41,14.41,0,0,1,322,79.21a13.69,13.69,0,0,1-1.79,7.35A11.49,11.49,0,0,1,315.62,91Zm-13.1,17.78h13.1c3.63,0,5.95.73,7.5,2.28a8.24,8.24,0,0,1,2.32,6,10.38,10.38,0,0,1-4.21,8.6c-2.8,2.18-6.57,3.29-11.22,3.29a17.06,17.06,0,0,1-9.91-2.66,9,9,0,0,1-3.72-7.78,10.38,10.38,0,0,1,1.74-5.85,11.07,11.07,0,0,1,4.4-3.92Z" style="fill:#071f2b"/></svg>