<svg id="ff016dfd-d397-4391-902f-d708582c9088" data-name="Calque 1" xmlns="http://www.w3.org/2000/svg" xmlns:xlink="http://www.w3.org/1999/xlink" viewBox="0 0 511.31 313.09"><defs><clipPath id="b665c66b-f262-461c-8e1d-2fabc709f8a0" transform="translate(-0.23 0)"><rect width="512" height="314" style="fill:none"/></clipPath><linearGradient id="f535ad4e-4d85-44ab-9197-6e8eba8997e4" x1="447.03" y1="-106.91" x2="393.69" y2="-190.72" gradientTransform="matrix(1, 0, 0, -1, -234, -10.97)" gradientUnits="userSpaceOnUse"><stop offset="0" stop-color="#42883f"/><stop offset="0.33" stop-color="#418b3d"/><stop offset="0.64" stop-color="#419636"/><stop offset="0.93" stop-color="#3faa35"/><stop offset="1" stop-color="#45ac34"/></linearGradient></defs><g style="clip-path:url(#b665c66b-f262-461c-8e1d-2fabc709f8a0)"><path d="M253.11,313.09a10.11,10.11,0,0,1-4.85-1.27l-15.38-9.13c-2.31-1.27-1.15-1.73-.46-2a28.06,28.06,0,0,0,6.94-3.12,1.06,1.06,0,0,1,1.15.11l11.79,7a1.48,1.48,0,0,0,1.39,0l46.11-26.69a1.34,1.34,0,0,0,.7-1.28V223.52a1.32,1.32,0,0,0-.7-1.27l-46.11-26.58a1.48,1.48,0,0,0-1.39,0l-46.11,26.58a1.46,1.46,0,0,0-.7,1.27V276.8a1.48,1.48,0,0,0,.7,1.28l12.6,7.28c6.81,3.46,11.09-.58,11.09-4.63V228.15a1.41,1.41,0,0,1,1.39-1.39h5.89a1.41,1.41,0,0,1,1.39,1.39v52.58c0,9.13-5,14.45-13.64,14.45-2.66,0-4.74,0-10.63-2.89l-12.14-6.93a9.77,9.77,0,0,1-4.85-8.44V223.64a9.76,9.76,0,0,1,4.85-8.44l46.12-26.7a10.34,10.34,0,0,1,9.7,0l46.12,26.7a9.76,9.76,0,0,1,4.85,8.44v53.28a9.77,9.77,0,0,1-4.85,8.44L258,312.05A11.69,11.69,0,0,1,253.11,313.09Zm14.22-36.63c-20.23,0-24.39-9.25-24.39-17.11a1.41,1.41,0,0,1,1.39-1.39h6a1.19,1.19,0,0,1,1.27,1.16c.92,6.13,3.58,9.13,15.83,9.13,9.71,0,13.87-2.2,13.87-7.4,0-3-1.16-5.2-16.29-6.7-12.6-1.27-20.46-4-20.46-14.1,0-9.36,7.86-14.91,21-14.91,14.8,0,22.08,5.09,23,16.18a1.86,1.86,0,0,1-.34,1,1.46,1.46,0,0,1-.93.46h-6a1.34,1.34,0,0,1-1.27-1c-1.39-6.35-5-8.43-14.45-8.43-10.63,0-11.9,3.7-11.9,6.47,0,3.35,1.5,4.39,15.83,6.24s20.92,4.51,20.92,14.45C290.33,270.68,282,276.46,267.33,276.46Z" transform="translate(-0.23 0)" style="fill:#529e42"/><path d="M110,104.71a5.88,5.88,0,0,0-3-5.08L58,71.43a6.92,6.92,0,0,0-2.66-.81H54.9a5.41,5.41,0,0,0-2.66.81l-49,28.2a5.88,5.88,0,0,0-3,5.08l.12,75.82a2.85,2.85,0,0,0,1.5,2.54,2.62,2.62,0,0,0,2.89,0l29.12-16.64a5.89,5.89,0,0,0,3-5.09V125.86a5.87,5.87,0,0,1,3-5.08l12.37-7.17a5.6,5.6,0,0,1,3-.81,4.93,4.93,0,0,1,2.89.81l12.37,7.17a5.88,5.88,0,0,1,3,5.08v35.48a5.88,5.88,0,0,0,3,5.09l29.13,16.64a3,3,0,0,0,4.5-2.54ZM345.57.35a3.14,3.14,0,0,0-2.89,0,3,3,0,0,0-1.5,2.54V78a2.22,2.22,0,0,1-1,1.85,2.19,2.19,0,0,1-2.08,0l-12.25-7a6,6,0,0,0-5.9,0l-49,28.32a5.88,5.88,0,0,0-3,5.08v56.52a5.89,5.89,0,0,0,3,5.09l49,28.31a6,6,0,0,0,5.9,0l49-28.31a5.89,5.89,0,0,0,3-5.09V21.84a5.93,5.93,0,0,0-3-5.2Zm-4.51,143.77a1.32,1.32,0,0,1-.69,1.27l-16.76,9.71a1.65,1.65,0,0,1-1.5,0l-16.76-9.71a1.44,1.44,0,0,1-.69-1.27V124.71a1.35,1.35,0,0,1,.69-1.28l16.76-9.7a1.65,1.65,0,0,1,1.5,0l16.76,9.7a1.47,1.47,0,0,1,.69,1.28Zm167.59-19.88a5.76,5.76,0,0,0,2.89-5.08V105.4a6,6,0,0,0-2.89-5.08L460,72.12a5.95,5.95,0,0,0-5.89,0l-49,28.31a5.88,5.88,0,0,0-3,5.09V162a5.87,5.87,0,0,0,3,5.08l48.66,27.74a5.74,5.74,0,0,0,5.78,0L489,178.45a2.91,2.91,0,0,0,0-5.09l-49.23-28.31a3,3,0,0,1-1.51-2.54V124.82a2.86,2.86,0,0,1,1.51-2.54l15.37-8.78a2.78,2.78,0,0,1,3,0l15.37,8.78a3,3,0,0,1,1.51,2.54v13.87a2.85,2.85,0,0,0,1.5,2.54,2.78,2.78,0,0,0,3,0Z" transform="translate(-0.23 0)" style="fill:#333"/><path d="M456.29,121.58a1.09,1.09,0,0,1,.58-.17,1.06,1.06,0,0,1,.58.17l9.36,5.44a1.21,1.21,0,0,1,.58,1v10.86a1.21,1.21,0,0,1-.58,1l-9.36,5.43a1,1,0,0,1-.58.18,1,1,0,0,1-.58-.18L446.93,140a1.21,1.21,0,0,1-.58-1V128.06a1.21,1.21,0,0,1,.58-1Z" transform="translate(-0.23 0)" style="fill:#529e42"/><path d="M192,72.35a5.95,5.95,0,0,0-5.89,0l-48.66,28.08a5.78,5.78,0,0,0-2.89,5.09V161.8a6,6,0,0,0,2.89,5.09L186.08,195a5.95,5.95,0,0,0,5.89,0l48.66-28.09a5.78,5.78,0,0,0,2.89-5.09V105.52a6,6,0,0,0-2.89-5.09Z" transform="translate(-0.23 0)" style="fill:url(#f535ad4e-4d85-44ab-9197-6e8eba8997e4)"/></g></svg>