<?xml version="1.0" encoding="utf-8"?>
<!-- Generator: Adobe Illustrator 25.2.1, SVG Export Plug-In . SVG Version: 6.00 Build 0)  -->
<svg version="1.1" id="Capa_1" xmlns="http://www.w3.org/2000/svg" xmlns:xlink="http://www.w3.org/1999/xlink" x="0px" y="0px"
	 viewBox="0 0 17.5 17.5" style="enable-background:new 0 0 17.5 17.5;" xml:space="preserve">
<style type="text/css">
	.st0{fill:#2C99EA;}
	.st1{fill:#001E36;}
</style>
<rect x="1.4" y="2.3" class="st0" width="14.9" height="12.5"/>
<g>
	<g>
		<path class="st1" d="M5.9,5C5.5,5,5.2,5,5,5.1v2.8C5.2,8,5.4,8,5.8,8c1.2,0,1.9-0.6,1.9-1.6C7.6,5.5,7,5,5.9,5z"/>
		<path class="st1" d="M16.4,0H1.1C0.5,0,0,0.5,0,1.1v15.3c0,0.6,0.5,1.1,1.1,1.1h15.3c0.6,0,1.1-0.5,1.1-1.1V1.1
			C17.5,0.5,17,0,16.4,0z M8.9,8.6c-0.7,0.7-1.8,1-3.1,1c-0.3,0-0.5,0-0.7,0V13H2.9V3.5c0.7-0.1,1.6-0.2,2.9-0.2
			c1.3,0,2.3,0.3,2.9,0.8c0.6,0.5,1,1.3,1,2.2S9.5,8.1,8.9,8.6z M12.1,13.2c-0.9,0-1.7-0.2-2.3-0.5l0.4-1.6c0.4,0.2,1.2,0.5,1.9,0.5
			c0.7,0,0.9-0.2,0.9-0.6c0-0.4-0.2-0.5-1-0.8c-1.4-0.5-2-1.3-2-2.1c0-1.3,1.1-2.3,2.8-2.3c0.8,0,1.5,0.2,2,0.4l-0.4,1.5
			c-0.3-0.2-0.9-0.4-1.5-0.4c-0.5,0-0.8,0.2-0.8,0.6c0,0.3,0.3,0.5,1.1,0.8c1.3,0.5,1.9,1.1,1.9,2.2C15.2,12.2,14.1,13.2,12.1,13.2z
			"/>
	</g>
</g>
</svg>
