<svg id="b8f92863-d491-4012-9c85-a864eb85aae7" data-name="Calque 1" xmlns="http://www.w3.org/2000/svg" xmlns:xlink="http://www.w3.org/1999/xlink" viewBox="0 0 256 227.77"><defs><clipPath id="a596b908-47ea-4e6d-b3cd-ef4a4ae0a3ae" transform="translate(0 0)"><rect width="256" height="228" style="fill:none"/></clipPath></defs><g style="clip-path:url(#a596b908-47ea-4e6d-b3cd-ef4a4ae0a3ae)"><path d="M210.48,73.82c-2.72-.93-5.47-1.8-8.24-2.59.47-1.9.9-3.78,1.28-5.62,6.23-30.29,2.16-54.68-11.77-62.71-13.36-7.7-35.2.33-57.26,19.52q-3.26,2.85-6.37,5.85-2.09-2-4.24-3.92C100.76,3.83,77.59-4.82,63.67,3.23,50.33,11,46.38,33.89,52,62.59q.84,4.26,1.9,8.48c-3.28.93-6.45,1.92-9.48,3C17.31,83.5,0,98.31,0,113.67c0,15.86,18.58,31.78,46.81,41.43,2.29.77,4.6,1.5,6.92,2.16-.75,3-1.42,6.07-2,9.14-5.35,28.2-1.17,50.59,12.14,58.26,13.74,7.93,36.81-.22,59.27-19.85q2.73-2.4,5.34-4.92,3.38,3.24,6.92,6.31c21.76,18.72,43.25,26.28,56.54,18.59,13.73-7.95,18.2-32,12.4-61.27-.45-2.29-1-4.58-1.53-6.84q2.43-.72,4.76-1.49C236.9,145.46,256,129.74,256,113.67,256,98.25,238.13,83.34,210.48,73.82Zm-6.36,71c-1.4.46-2.84.91-4.3,1.34a255.75,255.75,0,0,0-13-32.43,256.07,256.07,0,0,0,12.46-32q3.93,1.14,7.61,2.4c23.69,8.16,38.14,20.22,38.14,29.51C245.06,123.56,229.46,136.41,204.12,144.81ZM193.6,165.64c2.57,12.94,2.93,24.64,1.23,33.79-1.52,8.22-4.59,13.7-8.38,15.89-8.07,4.67-25.32-1.4-43.93-17.41q-3.3-2.85-6.43-5.87a257.58,257.58,0,0,0,21.46-27.25,254.23,254.23,0,0,0,34.67-5.34C192.73,161.5,193.19,163.57,193.6,165.64ZM87.28,214.51c-7.89,2.79-14.16,2.87-18,.68-8.07-4.66-11.43-22.64-6.85-46.75.54-2.85,1.17-5.69,1.87-8.5a256,256,0,0,0,34.49,5,267.27,267.27,0,0,0,22,27.15c-1.59,1.54-3.21,3-4.88,4.49C106,205.26,96.05,211.42,87.28,214.51ZM50.35,144.75c-12.48-4.27-22.79-9.82-29.86-15.87-6.35-5.43-9.55-10.83-9.55-15.21,0-9.32,13.89-21.21,37.07-29.3q4.23-1.47,8.82-2.77A261.29,261.29,0,0,0,69.3,113.93a266.33,266.33,0,0,0-12.63,32.8Q53.49,145.82,50.35,144.75ZM62.73,60.49C57.92,35.9,61.11,17.35,69.15,12.7c8.57-5,27.5,2.11,47.47,19.83q1.95,1.74,3.84,3.55a260.79,260.79,0,0,0-21.81,27,266.17,266.17,0,0,0-34.16,5.3Q63.52,64.46,62.73,60.49ZM173.15,87.75q-3.75-6.48-7.78-12.8c8.17,1,16,2.41,23.34,4.08a231.28,231.28,0,0,1-8.19,22Q177,94.35,173.15,87.75Zm-45-43.86a233.86,233.86,0,0,1,15.07,18.19q-15.12-.72-30.26,0C117.9,55.51,123,49.42,128.12,43.89ZM82.8,87.83Q79,94.37,75.57,101.07c-3.18-7.56-5.9-15-8.13-22.15,7.31-1.64,15.09-3,23.21-4Q86.57,81.29,82.8,87.83Zm8.08,65.35a231.16,231.16,0,0,1-23.59-3.79c2.26-7.3,5-14.89,8.3-22.6q3.47,6.7,7.26,13.25Q86.74,146.75,90.88,153.18Zm37.55,31c-5.19-5.59-10.36-11.78-15.41-18.43q7.35.28,15,.29c5.22,0,10.38-.12,15.45-.34A233.25,233.25,0,0,1,128.43,184.21Zm52.19-57.82a234.06,234.06,0,0,1,8.6,22.52A232.31,232.31,0,0,1,165.34,153q4-6.44,7.86-13T180.62,126.39Zm-16.89,8.11q-5.82,10.09-12.29,19.81-11.7.83-23.44.82c-8,0-15.72-.24-23.18-.73q-6.63-9.68-12.51-19.84T81.39,113.93q5.06-10.52,10.89-20.64h0q5.82-10.11,12.41-19.76c7.61-.57,15.42-.87,23.31-.87s15.74.3,23.35.88q6.53,9.63,12.34,19.69t11,20.54Q169.6,124.33,163.73,134.5ZM186.29,12.37c8.57,5,11.9,24.88,6.51,51-.34,1.67-.73,3.36-1.15,5.09a261.56,261.56,0,0,0-34.22-5.41,258.87,258.87,0,0,0-21.64-27c1.91-1.85,3.88-3.65,5.88-5.4C160.57,14.22,178.24,7.73,186.29,12.37ZM128,90.81a22.86,22.86,0,1,1-22.86,22.86A22.86,22.86,0,0,1,128,90.81Z" transform="translate(0 0)" style="fill:#54c3ea"/></g></svg>