<svg id="aabacdfe-3f4b-4c3c-affa-bee634b446c2" data-name="Calque 1" xmlns="http://www.w3.org/2000/svg" xmlns:xlink="http://www.w3.org/1999/xlink" viewBox="0 0 31.55 28.26"><defs><clipPath id="b1381c30-afbe-4ae6-9a48-0605b50bcb5c" transform="translate(0 0)"><rect width="31.55" height="28.35" style="fill:none"/></clipPath></defs><g style="clip-path:url(#b1381c30-afbe-4ae6-9a48-0605b50bcb5c)"><path d="M19.47,17.56l-.6,1.05a1,1,0,0,1-.89.51H13.34a1,1,0,0,1-.51-.13,1,1,0,0,1-.37-.38l-.61-1.05Zm1.69-2.94L20.1,16.47H11.23l-1.07-1.85Zm-1-2.88,1,1.79h-11l1-1.79ZM18,9a1,1,0,0,1,.51.14,1,1,0,0,1,.38.37l.64,1.12h-7.7l.65-1.12a1.09,1.09,0,0,1,.37-.37A1,1,0,0,1,13.34,9Z" transform="translate(0 0)" style="fill:#01435b"/><path d="M6.6,8.53a14,14,0,0,1-.3-5.78,3.75,3.75,0,0,1,1.11-2A3.15,3.15,0,0,1,9.55,0a7.23,7.23,0,0,1,4.31,1.8A19.39,19.39,0,0,1,15.8,3.53,1.07,1.07,0,0,1,16,3.34,14,14,0,0,1,20.84.19a3.72,3.72,0,0,1,2.26,0,3.15,3.15,0,0,1,1.73,1.47,7.3,7.3,0,0,1,.61,4.64,19.08,19.08,0,0,1-.53,2.55,1.4,1.4,0,0,1,.28.06,13.92,13.92,0,0,1,5.14,2.64,3.63,3.63,0,0,1,1.16,2,3.11,3.11,0,0,1-.41,2.23,7.15,7.15,0,0,1-3.7,2.84,18.55,18.55,0,0,1-2.42.8,1.71,1.71,0,0,1,.09.3,13.79,13.79,0,0,1,.29,5.79,3.68,3.68,0,0,1-1.1,2,3.17,3.17,0,0,1-2.14.76,7.28,7.28,0,0,1-4.31-1.79,20,20,0,0,1-2-1.76,1.48,1.48,0,0,1-.26.3,14,14,0,0,1-4.86,3.15,3.72,3.72,0,0,1-2.26,0,3.15,3.15,0,0,1-1.73-1.47A7.3,7.3,0,0,1,6.11,22a19.46,19.46,0,0,1,.56-2.65,1.08,1.08,0,0,1-.31-.07,13.78,13.78,0,0,1-5.14-2.63,3.63,3.63,0,0,1-1.16-2,3.11,3.11,0,0,1,.41-2.23,7.15,7.15,0,0,1,3.7-2.84,19.78,19.78,0,0,1,2.5-.83,1.11,1.11,0,0,1-.07-.26Z" transform="translate(0 0)" style="fill:#042b3b"/><path d="M23.37,19.88a.46.46,0,0,1,.33.07.51.51,0,0,1,.2.28h0l0,.14c.83,4.34.25,6.52-1.74,6.52S17.75,25,14.73,21.33a.54.54,0,0,1-.1-.23.49.49,0,0,1,0-.24.45.45,0,0,1,.17-.19.41.41,0,0,1,.24-.08h.17c1.27,0,2.5,0,3.7-.13a43.68,43.68,0,0,0,4.42-.58ZM9.69,16.6h0l.08.14c.64,1.11,1.3,2.16,2,3.16.82,1.17,1.73,2.36,2.75,3.56a.45.45,0,0,1,0,.63h0l-.1.09q-5.05,4.32-6.56,1.72t1.07-9.25a.43.43,0,0,1,.15-.2.5.5,0,0,1,.23-.09.53.53,0,0,1,.25.05.42.42,0,0,1,.18.17Zm15.39-6.42h0l.13,0C29.38,11.67,31,13.26,30,15s-3.82,2.93-8.51,3.7a.35.35,0,0,1-.25,0,.45.45,0,0,1-.2-.16.41.41,0,0,1-.08-.24A.54.54,0,0,1,21,18c.67-1.14,1.28-2.28,1.82-3.41.61-1.29,1.18-2.67,1.72-4.14a.45.45,0,0,1,.22-.25.47.47,0,0,1,.33,0ZM10.41,9.45a.49.49,0,0,1,.13.12.48.48,0,0,1,.08.16.55.55,0,0,1,0,.18.58.58,0,0,1-.06.17c-.67,1.14-1.28,2.28-1.82,3.41C8.14,14.78,7.57,16.16,7,17.63a.45.45,0,0,1-.22.25.5.5,0,0,1-.34,0h0l-.13,0Q.1,15.69,1.59,13.1T10.1,9.4A.47.47,0,0,1,10.41,9.45ZM23.74,2.34q1.49,2.54-1.07,9.25a.48.48,0,0,1-.15.2.5.5,0,0,1-.23.09.53.53,0,0,1-.25-.05.49.49,0,0,1-.18-.17h0l-.08-.14c-.64-1.11-1.3-2.16-2-3.16C19,7.18,18.05,6,17,4.79a.48.48,0,0,1-.11-.32.46.46,0,0,1,.15-.31h0l.1-.09q5.06-4.32,6.56-1.72Zm-14.19-1C11.49,1.31,14,3.16,17,6.87a.52.52,0,0,1,.1.23.55.55,0,0,1,0,.25.51.51,0,0,1-.17.19.48.48,0,0,1-.23.07h-.18c-1.26,0-2.5,0-3.69.13-1.42.11-2.89.31-4.43.58A.42.42,0,0,1,8,8.25.4.4,0,0,1,7.83,8h0l0-.13Q6.56,1.31,9.55,1.31Z" transform="translate(0 0)" style="fill:#e94558"/><path d="M13.72,9.08h3.89a1.56,1.56,0,0,1,.79.21,1.52,1.52,0,0,1,.59.59l2,3.4a1.58,1.58,0,0,1,.21.79,1.56,1.56,0,0,1-.21.79l-2,3.41a1.65,1.65,0,0,1-1.38.8H13.72a1.6,1.6,0,0,1-1.38-.8l-2-3.41a1.66,1.66,0,0,1-.21-.79,1.7,1.7,0,0,1,.21-.79l2-3.4a1.56,1.56,0,0,1,.58-.59,1.59,1.59,0,0,1,.8-.21Zm3.3,1a1.57,1.57,0,0,1,1.37.8l1.37,2.37a1.7,1.7,0,0,1,.21.79,1.66,1.66,0,0,1-.21.79l-1.37,2.38a1.61,1.61,0,0,1-.58.58A1.5,1.5,0,0,1,17,18H14.31a1.6,1.6,0,0,1-1.38-.8l-1.36-2.38a1.56,1.56,0,0,1-.21-.79,1.58,1.58,0,0,1,.21-.79l1.36-2.37a1.56,1.56,0,0,1,.58-.59,1.62,1.62,0,0,1,.8-.21Zm-.64,1.12H15a1.62,1.62,0,0,0-.8.21,1.64,1.64,0,0,0-.58.59l-.72,1.25a1.58,1.58,0,0,0-.21.79,1.56,1.56,0,0,0,.21.79l.72,1.26a1.61,1.61,0,0,0,.58.58,1.63,1.63,0,0,0,.8.22h1.43a1.59,1.59,0,0,0,1.37-.8l.72-1.26a1.56,1.56,0,0,0,.21-.79,1.58,1.58,0,0,0-.21-.79L17.75,12a1.64,1.64,0,0,0-.58-.59,1.56,1.56,0,0,0-.79-.21Zm-.62,1.08a1.6,1.6,0,0,1,1.38.79l.1.18a1.56,1.56,0,0,1,.21.79,1.62,1.62,0,0,1-.21.8l-.1.17a1.56,1.56,0,0,1-.58.59,1.62,1.62,0,0,1-.8.21h-.2a1.58,1.58,0,0,1-.79-.21,1.56,1.56,0,0,1-.58-.59l-.1-.17a1.63,1.63,0,0,1-.22-.8,1.57,1.57,0,0,1,.22-.79l.1-.18a1.61,1.61,0,0,1,.58-.58,1.58,1.58,0,0,1,.79-.21Zm-.1,1.06a.73.73,0,0,0-.35.09.65.65,0,0,0-.26.26.73.73,0,0,0-.09.35.74.74,0,0,0,.09.36.81.81,0,0,0,.26.26.73.73,0,0,0,.35.09.74.74,0,0,0,.36-.09.88.88,0,0,0,.25-.26.65.65,0,0,0,.1-.36.64.64,0,0,0-.1-.35.69.69,0,0,0-.25-.26.74.74,0,0,0-.36-.09Zm-5.73.7h0Z" transform="translate(0 0)" style="fill:#ffd94c"/></g></svg>