<svg id="ac5624e6-b76d-402e-9fa9-3967046a18ba" data-name="Calque 1" xmlns="http://www.w3.org/2000/svg" viewBox="0 0 37.79 28.35"><path d="M17.82,21.43m14.71-5.14a7.84,7.84,0,0,0-3.42.8,7.25,7.25,0,0,1-.77-1.78,4.53,4.53,0,0,1-.06-1.49,11.41,11.41,0,0,1,.45-1.61c0-.06-.09-.39-.85-.39s-1.42.14-1.49.35a6.2,6.2,0,0,0-.31,1.12,28.35,28.35,0,0,1-2.31,4.45,4.73,4.73,0,0,1-.53-1.3A4.56,4.56,0,0,1,23.18,15a11.41,11.41,0,0,1,.45-1.61c0-.06-.09-.39-.85-.4s-1.42.15-1.49.35-.16.68-.32,1.13S19,19,18.49,20.05c-.25.55-.46,1-.61,1.28l-.06.1,0-.05-.2.4h0c-.11.19-.22.36-.27.36a2.37,2.37,0,0,1,0-1.17c.27-1.43.93-3.65.92-3.73s.13-.42-.43-.63a.71.71,0,0,0-.78.13s-.08.12-.08.12.6-2.5-1.14-2.5c-1.09,0-2.6,1.19-3.34,2.27L10,18l-1.23.67L8.7,18.6c-2.11-2.25-6-3.85-5.85-6.88.06-1.1.44-4,7.5-7.52,5.79-2.88,10.42-2.09,11.21-.33,1.15,2.51-2.47,7.18-8.48,7.85a4.49,4.49,0,0,1-3.79-1c-.32-.35-.36-.37-.48-.3s-.07.41,0,.6A3.53,3.53,0,0,0,11,12.76a11.51,11.51,0,0,0,7-.7c3.64-1.4,6.48-5.32,5.65-8.59S17.3-1,12.08.9A26.24,26.24,0,0,0,3.18,6C.31,8.69-.15,11,0,12c.67,3.48,5.46,5.74,7.38,7.42l-.26.15C6.19,20.07,2.54,22,1.62,24c-1,2.29.18,3.93,1,4.16a5.9,5.9,0,0,0,6.35-2.58,6.39,6.39,0,0,0,.57-5.87l0-.05c.25-.15.5-.3.76-.44.49-.29,1-.56,1.39-.79a9.12,9.12,0,0,0-.5,2.52,5.18,5.18,0,0,0,1.13,3.64,1.22,1.22,0,0,0,.91.29c.81,0,1.18-.67,1.58-1.47.51-1,.95-2.12.95-2.12s-.56,3.08,1,3.08c.56,0,1.11-.71,1.36-1.08h0a.28.28,0,0,1,0-.07,1.56,1.56,0,0,0,.09-.15h0c.22-.39.71-1.27,1.45-2.72,1-1.88,1.87-4.22,1.87-4.22a11.6,11.6,0,0,0,.37,1.52,12.87,12.87,0,0,0,.79,1.77c-.22.31-.36.49-.36.49a0,0,0,0,0,0,0c-.18.23-.38.49-.59.74a20.46,20.46,0,0,0-1.77,2.22.61.61,0,0,0,.16.81,1.48,1.48,0,0,0,.93.14,3.85,3.85,0,0,0,1.39-.32,5,5,0,0,0,1.19-.62,2.66,2.66,0,0,0,1.15-2.35,5.15,5.15,0,0,0-.43-1.67l.2-.29A33.11,33.11,0,0,0,26.58,15a13.41,13.41,0,0,0,.36,1.52A10.49,10.49,0,0,0,27.62,18a6.51,6.51,0,0,0-2,2.6c-.43,1.26-.09,1.83.55,2a2,2,0,0,0,1-.21,4.68,4.68,0,0,0,1.28-.65,2.85,2.85,0,0,0,1.4-2.34A4.14,4.14,0,0,0,29.52,18a7.18,7.18,0,0,1,3.67-.43C36.48,18,37.12,20,37,20.89a2.2,2.2,0,0,1-1,1.47c-.23.14-.3.2-.28.3s.13.15.33.12a2.58,2.58,0,0,0,1.79-2.29c.09-2-1.84-4.22-5.26-4.2ZM7.19,24.84C6.11,26,4.58,26.47,3.93,26.1s-.43-2.16.91-3.42A18.29,18.29,0,0,1,7.4,20.76l.68-.41.07,0,.17-.1a4.71,4.71,0,0,1-1.13,4.63Zm7.94-5.4c-.38.93-1.18,3.29-1.66,3.17s-.67-1.91-.09-3.68a8.16,8.16,0,0,1,1.3-2.37c.59-.67,1.25-.88,1.4-.62s-.72,2.92-.95,3.5Zm6.55,3.13c-.16.08-.31.14-.38.09s.07-.14.07-.14.82-.88,1.14-1.28l.65-.82v.1a2.74,2.74,0,0,1-1.48,2.05Zm5.05-1.15c-.11-.08-.1-.36.3-1.22a4.53,4.53,0,0,1,1.12-1.45,2,2,0,0,1,.11.64,2.07,2.07,0,0,1-1.53,2Z" style="fill:#cd6799"/></svg>