<svg id="b9b104c6-94e1-4129-9531-4cd49b0b718f" data-name="Calque 1" xmlns="http://www.w3.org/2000/svg" viewBox="0 0 15.17 15.37"><path d="M10.12,4.94C9.7,2.39,8.72.6,7.59.6S5.47,2.39,5.06,4.94ZM4.84,7.69a18,18,0,0,0,.1,1.83h5.29a18,18,0,0,0,.1-1.83,17.72,17.72,0,0,0-.1-1.83H4.94A17.72,17.72,0,0,0,4.84,7.69Zm9.28-2.75A7.08,7.08,0,0,0,9.61.9a9.84,9.84,0,0,1,1.43,4ZM5.56.9a7.08,7.08,0,0,0-4.51,4H4.14A9.7,9.7,0,0,1,5.56.9Zm8.87,5H11.15q.09.9.09,1.83c0,.61,0,1.23-.09,1.83h3.27a7,7,0,0,0,.25-1.83,7.28,7.28,0,0,0-.24-1.83ZM3.93,7.69q0-.93.09-1.83H.75A6.85,6.85,0,0,0,.5,7.69,7,7,0,0,0,.75,9.52H4C4,8.92,3.93,8.3,3.93,7.69Zm1.13,2.74c.41,2.55,1.39,4.34,2.53,4.34S9.7,13,10.12,10.43Zm4.55,4.05a7.1,7.1,0,0,0,4.51-4.05H11A9.6,9.6,0,0,1,9.61,14.48ZM1.05,10.43a7.12,7.12,0,0,0,4.52,4.05,9.6,9.6,0,0,1-1.43-4.05Z" style="fill:#fff;stroke:#1d1d1b;stroke-miterlimit:10"/></svg>